<svg width="98" height="33" viewBox="0 0 98 33" fill="none" xmlns="http://www.w3.org/2000/svg">
<g filter="url(#filter0_d_2_16)">
<path d="M13.0424 0.75061C13.4219 0.27618 13.9965 0 14.6041 0H92C93.1046 0 94 0.895431 94 2V22.1071C94 23.2117 93.1046 24.1071 92 24.1071H14.6041C13.9965 24.1071 13.4219 23.831 13.0424 23.3565L4.99951 13.303C4.41516 12.5725 4.41516 11.5346 4.99951 10.8042L13.0424 0.75061Z" fill="#5A47AB"/>
<path d="M29.9408 6.16659H20.0592C19.9481 6.16504 19.8378 6.1854 19.7346 6.22648C19.6314 6.26757 19.5373 6.32859 19.4576 6.40605C19.378 6.48351 19.3144 6.5759 19.2705 6.67794C19.2266 6.77998 19.2032 6.88967 19.2017 7.00075V16.9991C19.2032 17.1102 19.2266 17.2199 19.2705 17.3219C19.3144 17.4239 19.378 17.5163 19.4576 17.5938C19.5373 17.6712 19.6314 17.7323 19.7346 17.7734C19.8378 17.8144 19.9481 17.8348 20.0592 17.8333H29.9408C30.0519 17.8348 30.1622 17.8144 30.2654 17.7734C30.3686 17.7323 30.4627 17.6712 30.5424 17.5938C30.622 17.5163 30.6856 17.4239 30.7295 17.3219C30.7734 17.2199 30.7968 17.1102 30.7983 16.9991V7.00075C30.7968 6.88967 30.7734 6.77998 30.7295 6.67794C30.6856 6.5759 30.622 6.48351 30.5424 6.40605C30.4627 6.32859 30.3686 6.26757 30.2654 6.22648C30.1622 6.1854 30.0519 6.16504 29.9408 6.16659ZM22.7192 15.9316H20.9692V10.6816H22.7192V15.9316ZM21.8442 9.94658C21.6028 9.94658 21.3714 9.85071 21.2007 9.68005C21.03 9.50939 20.9342 9.27793 20.9342 9.03659C20.9342 8.79524 21.03 8.56378 21.2007 8.39312C21.3714 8.22246 21.6028 8.12659 21.8442 8.12659C21.9723 8.11205 22.1021 8.12475 22.225 8.16385C22.3479 8.20295 22.4612 8.26757 22.5574 8.35348C22.6536 8.43939 22.7306 8.54465 22.7833 8.66237C22.836 8.78009 22.8632 8.90761 22.8632 9.03659C22.8632 9.16556 22.836 9.29309 22.7833 9.4108C22.7306 9.52852 22.6536 9.63378 22.5574 9.71969C22.4612 9.8056 22.3479 9.87022 22.225 9.90932C22.1021 9.94842 21.9723 9.96112 21.8442 9.94658ZM29.0308 15.9316H27.2808V13.1141C27.2808 12.4083 27.03 11.9474 26.3942 11.9474C26.1974 11.9489 26.0058 12.0106 25.8451 12.1243C25.6845 12.238 25.5626 12.3981 25.4958 12.5833C25.4502 12.7204 25.4304 12.8648 25.4375 13.0091V15.9258H23.6875C23.6875 15.9258 23.6875 11.1541 23.6875 10.6758H25.4375V11.4166C25.5965 11.1407 25.8277 10.9135 26.1063 10.7593C26.3848 10.6051 26.7002 10.5298 27.0183 10.5416C28.185 10.5416 29.0308 11.2941 29.0308 12.9099V15.9316Z" fill="white"/>
<path d="M47.26 9V12.12H42.88V9H42.14V16H42.88V12.77H47.26V16H47.99V9H47.26ZM50.4848 9.59C50.7848 9.59 51.0048 9.36 51.0048 9.07C51.0048 8.8 50.7748 8.58 50.4848 8.58C50.1948 8.58 49.9648 8.81 49.9648 9.08C49.9648 9.36 50.1948 9.59 50.4848 9.59ZM50.1248 16H50.8348V10.74H50.1248V16ZM53.4903 11.77V10.74H52.8103V16H53.5203V13.32C53.5203 12.08 54.1903 11.38 55.2903 11.38C55.3403 11.38 55.4003 11.39 55.4603 11.39V10.7C54.4903 10.7 53.8203 11.07 53.4903 11.77ZM61.287 13.37C61.287 11.79 60.217 10.7 58.737 10.7C57.257 10.7 56.167 11.81 56.167 13.37C56.167 14.93 57.287 16.05 58.927 16.05C59.757 16.05 60.487 15.75 60.957 15.19L60.557 14.73C60.157 15.19 59.587 15.42 58.947 15.42C57.797 15.42 56.957 14.69 56.877 13.59H61.277C61.277 13.51 61.287 13.43 61.287 13.37ZM58.737 11.31C59.767 11.31 60.517 12.03 60.607 13.06H56.877C56.967 12.03 57.717 11.31 58.737 11.31ZM72.1594 9L69.1494 14.19L66.1094 9H65.4994V16H66.2094V10.43L68.9594 15.11H69.3094L72.0594 10.4V16H72.7694V9H72.1594ZM79.4902 13.37C79.4902 11.79 78.4202 10.7 76.9402 10.7C75.4602 10.7 74.3702 11.81 74.3702 13.37C74.3702 14.93 75.4902 16.05 77.1302 16.05C77.9602 16.05 78.6902 15.75 79.1602 15.19L78.7602 14.73C78.3602 15.19 77.7902 15.42 77.1502 15.42C76.0002 15.42 75.1602 14.69 75.0802 13.59H79.4802C79.4802 13.51 79.4902 13.43 79.4902 13.37ZM76.9402 11.31C77.9702 11.31 78.7202 12.03 78.8102 13.06H75.0802C75.1702 12.03 75.9202 11.31 76.9402 11.31Z" fill="white"/>
</g>
<defs>
<filter id="filter0_d_2_16" x="0.561279" y="0" width="97.4387" height="32.1072" filterUnits="userSpaceOnUse" color-interpolation-filters="sRGB">
<feFlood flood-opacity="0" result="BackgroundImageFix"/>
<feColorMatrix in="SourceAlpha" type="matrix" values="0 0 0 0 0 0 0 0 0 0 0 0 0 0 0 0 0 0 127 0" result="hardAlpha"/>
<feOffset dy="4"/>
<feGaussianBlur stdDeviation="2"/>
<feComposite in2="hardAlpha" operator="out"/>
<feColorMatrix type="matrix" values="0 0 0 0 0 0 0 0 0 0 0 0 0 0 0 0 0 0 0.25 0"/>
<feBlend mode="normal" in2="BackgroundImageFix" result="effect1_dropShadow_2_16"/>
<feBlend mode="normal" in="SourceGraphic" in2="effect1_dropShadow_2_16" result="shape"/>
</filter>
</defs>
</svg>
